<!-- <svg width="50" height="50" viewBox="0 0 50 50" fill="none" xmlns="http://www.w3.org/2000/svg">
<g clip-path="url(#clip0_117_203)">
<path d="M0 0H50V50H0V0Z" fill="#FFDF00"/>
<path d="M33.5873 39.0627C34.5944 40.7071 35.9048 41.9158 38.2223 41.9158C40.169 41.9158 41.4127 40.9428 41.4127 39.5983C41.4127 37.9872 40.135 37.4166 37.9921 36.4793L36.8175 35.9753C33.427 34.5309 31.1746 32.7213 31.1746 28.8959C31.1746 25.3721 33.8596 22.6896 38.0556 22.6896C41.0429 22.6896 43.1905 23.7292 44.7381 26.4515L41.0794 28.8007C40.2738 27.3563 39.4048 26.7872 38.0556 26.7872C36.6794 26.7872 35.8071 27.6603 35.8071 28.8007C35.8071 30.2103 36.6802 30.7809 38.696 31.6539L39.8706 32.157C43.8627 33.8689 46.1166 35.6142 46.1166 39.538C46.1166 43.7682 42.7936 46.0856 38.3309 46.0856C33.9674 46.0856 31.1483 44.0063 29.7689 41.2809L33.5873 39.0627ZM16.9896 39.4698C17.7277 40.7794 18.3992 41.8865 20.0135 41.8865C21.5571 41.8865 22.531 41.2825 22.531 38.9342V22.9579H27.2294V38.9976C27.2294 43.8626 24.3771 46.077 20.2135 46.077C16.4516 46.077 14.273 44.1301 13.165 41.7853L16.9896 39.4698Z" fill="black"/>
</g>
<defs>
<clipPath id="clip0_117_203">
<rect width="50" height="50" fill="white"/>
</clipPath>
</defs>
</svg> -->

<svg width="50" height="50" viewBox="0 0 50 50" fill="none" xmlns="http://www.w3.org/2000/svg">
    <g clip-path="url(#clip0_117_203)">
      <path d="M0 0H50V50H0V0Z" fill="#FFDF00" />
      <path d="M33.5873 39.0627C34.5944 40.7071 35.9048 41.9158 38.2223 41.9158C40.169 41.9158 41.4127 40.9428 41.4127 39.5983C41.4127 37.9872 40.135 37.4166 37.9921 36.4793L36.8175 35.9753C33.427 34.5309 31.1746 32.7213 31.1746 28.8959C31.1746 25.3721 33.8596 22.6896 38.0556 22.6896C41.0429 22.6896 43.1905 23.7292 44.7381 26.4515L41.0794 28.8007C40.2738 27.3563 39.4048 26.7872 38.0556 26.7872C36.6794 26.7872 35.8071 27.6603 35.8071 28.8007C35.8071 30.2103 36.6802 30.7809 38.696 31.6539L39.8706 32.157C43.8627 33.8689 46.1166 35.6142 46.1166 39.538C46.1166 43.7682 42.7936 46.0856 38.3309 46.0856C33.9674 46.0856 31.1483 44.0063 29.7689 41.2809L33.5873 39.0627ZM16.9896 39.4698C17.7277 40.7794 18.3992 41.8865 20.0135 41.8865C21.5571 41.8865 22.531 41.2825 22.531 38.9342V22.9579H27.2294V38.9976C27.2294 43.8626 24.3771 46.077 20.2135 46.077C16.4516 46.077 14.273 44.1301 13.165 41.7853L16.9896 39.4698Z" fill="white" />
    </g>
    <defs>
      <clipPath id="clip0_117_203">
        <!-- Added rounded corners to the clipping path with rx and ry -->
        <rect width="50" height="50" rx="8" ry="8" fill="white" />
      </clipPath>
    </defs>
  </svg>
  