<svg width="175" height="111" viewBox="0 0 175 111" fill="none" xmlns="http://www.w3.org/2000/svg">
<path d="M29.82 58.02H13.14L10.38 66H1.56L16.62 24.06H26.4L41.46 66H32.58L29.82 58.02ZM27.54 51.3L21.48 33.78L15.42 51.3H27.54ZM92.7492 24.12V66H84.3492V38.76L73.1292 66H66.7692L55.4892 38.76V66H47.0892V24.12H56.6292L69.9492 55.26L83.2692 24.12H92.7492ZM173.127 24.12L157.767 66H147.567L132.207 24.12H141.207L152.727 57.42L164.187 24.12H173.127Z" fill="#D9D9D9"/>
<path d="M102.734 56.52C106.574 53.32 109.634 50.66 111.914 48.54C114.194 46.38 116.094 44.14 117.614 41.82C119.134 39.5 119.894 37.22 119.894 34.98C119.894 32.94 119.414 31.34 118.454 30.18C117.494 29.02 116.014 28.44 114.014 28.44C112.014 28.44 110.474 29.12 109.394 30.48C108.314 31.8 107.754 33.62 107.714 35.94H99.5541C99.7141 31.14 101.134 27.5 103.814 25.02C106.534 22.54 109.974 21.3 114.134 21.3C118.694 21.3 122.194 22.52 124.634 24.96C127.074 27.36 128.294 30.54 128.294 34.5C128.294 37.62 127.454 40.6 125.774 43.44C124.094 46.28 122.174 48.76 120.014 50.88C117.854 52.96 115.034 55.48 111.554 58.44H129.254V65.4H99.6141V59.16L102.734 56.52Z" fill="#F07E13"/>
<path d="M52.27 95.67H59.17V99H48.07V78.06H52.27V95.67ZM66.0395 81.45V86.7H73.0895V90.03H66.0395V95.58H73.9895V99H61.8395V78.03H73.9895V81.45H66.0395ZM90.6463 95.01H82.3063L80.9263 99H76.5163L84.0463 78.03H88.9363L96.4663 99H92.0263L90.6463 95.01ZM89.5063 91.65L86.4763 82.89L83.4463 91.65H89.5063ZM110.081 99L105.461 90.84H103.481V99H99.2809V78.06H107.141C108.761 78.06 110.141 78.35 111.281 78.93C112.421 79.49 113.271 80.26 113.831 81.24C114.411 82.2 114.701 83.28 114.701 84.48C114.701 85.86 114.301 87.11 113.501 88.23C112.701 89.33 111.511 90.09 109.931 90.51L114.941 99H110.081ZM103.481 87.69H106.991C108.131 87.69 108.981 87.42 109.541 86.88C110.101 86.32 110.381 85.55 110.381 84.57C110.381 83.61 110.101 82.87 109.541 82.35C108.981 81.81 108.131 81.54 106.991 81.54H103.481V87.69ZM136.41 99H132.21L122.7 84.63V99H118.5V78.03H122.7L132.21 92.43V78.03H136.41V99Z" fill="#D9D9D9"/>
<path d="M142.42 99.21C141.66 99.21 141.03 98.98 140.53 98.52C140.05 98.04 139.81 97.45 139.81 96.75C139.81 96.05 140.05 95.47 140.53 95.01C141.03 94.53 141.66 94.29 142.42 94.29C143.16 94.29 143.77 94.53 144.25 95.01C144.73 95.47 144.97 96.05 144.97 96.75C144.97 97.45 144.73 98.04 144.25 98.52C143.77 98.98 143.16 99.21 142.42 99.21Z" fill="#0FC3E8"/>
</svg>
