<svg width="50" height="50" viewBox="0 0 50 50" fill="none" xmlns="http://www.w3.org/2000/svg">
<g clip-path="url(#clip0_117_188)">
<path d="M43.7007 10.2657L40.3292 48.0352L25.1742 52.2367L10.0608 48.0411L6.69287 10.2657H43.7007Z" fill="#004CE8"/>
<path d="M37.4428 45.6302L40.324 13.3544H25.1968V49.0253L37.4428 45.6302Z" fill="#0065F4"/>
<path d="M14.4138 27.3648L14.8291 31.9977H25.1968L27.1897 29.6813L25.1968 27.3648H14.4138Z" fill="#EBEBEB"/>
<path d="M25.1968 17.9875H25.1808H13.5795L14.0006 22.6205H25.1968L27.1897 20.304L25.1968 17.9875Z" fill="#EBEBEB"/>
<path d="M25.1968 44.2175L27.1896 41.7606L25.1968 39.3972L25.1765 39.4026L20.0167 38.0093L19.6868 34.3143H17.1796H15.036L15.6851 41.5888L25.1754 44.2234L25.1968 44.2175Z" fill="#EBEBEB"/>
<path d="M15.4025 0H21.0138V2.34657H17.749V4.69314H21.0138V7.03971H15.4025V0Z" fill="black"/>
<path d="M22.1361 0H27.7475V2.0405H24.4827V2.4486H27.7475V7.14174H22.1361V4.99922H25.4009V4.59112H22.1361V0Z" fill="black"/>
<path d="M28.8698 0H34.4811V2.0405H31.2163V2.4486H34.4811V7.14174H28.8698V4.99922H32.1345V4.59112H28.8698V0Z" fill="black"/>
<path d="M30.8858 31.9977L30.348 38.0064L25.1808 39.4011V44.2211L34.6787 41.5888L34.7484 40.8061L35.8371 28.6089L35.9501 27.3648L36.7865 17.9875H25.1808V22.6205H31.7091L31.2876 27.3648H25.1808V31.9977H30.8858Z" fill="white"/>
</g>
<defs>
<clipPath id="clip0_117_188">
<rect width="50" height="50" fill="white"/>
</clipPath>
</defs>
</svg>
