<svg width="25" height="30" viewBox="0 0 25 30" fill="none" xmlns="http://www.w3.org/2000/svg">
<g clip-path="url(#clip0_333_41)">
<path d="M4.16667 0C1.86849 0 0 1.68164 0 3.75V26.25C0 28.3184 1.86849 30 4.16667 30H20.8333C23.1315 30 25 28.3184 25 26.25V9.375H16.6667C15.5143 9.375 14.5833 8.53711 14.5833 7.5V0H4.16667ZM16.6667 0V7.5H25L16.6667 0ZM14.0625 13.5938V19.5762L16.0807 17.7598C16.6927 17.209 17.6823 17.209 18.2878 17.7598C18.8932 18.3105 18.8997 19.2012 18.2878 19.7461L13.6003 23.9648C12.9883 24.5156 11.9987 24.5156 11.3932 23.9648L6.70573 19.7461C6.09375 19.1953 6.09375 18.3047 6.70573 17.7598C7.31771 17.2148 8.30729 17.209 8.91276 17.7598L10.931 19.5762L10.9375 13.5938C10.9375 12.8145 11.6341 12.1875 12.5 12.1875C13.3659 12.1875 14.0625 12.8145 14.0625 13.5938Z" fill="black"/>
</g>
<defs>
<clipPath id="clip0_333_41">
<rect width="25" height="30" fill="white"/>
</clipPath>
</defs>
</svg>