<svg width="30" height="30" viewBox="0 0 30 30" fill="none" xmlns="http://www.w3.org/2000/svg">
<g clip-path="url(#clip0_229_11)">
<path d="M25.4807 19.119V25.972H4.51833V19.119H0.48938V27.9865C0.48938 29.0983 1.39004 30 2.50686 30H27.4922C28.608 30 29.5097 29.0993 29.5097 27.9865V19.119H25.4807Z" fill="black"/>
<path d="M14.6308 18.4395L8.86254 11.4694C8.86254 11.4694 7.9849 10.6408 8.9366 10.6408C9.8883 10.6408 12.187 10.6408 12.187 10.6408C12.187 10.6408 12.187 10.0834 12.187 9.22376C12.187 6.77297 12.187 2.3127 12.187 0.494363C12.187 0.494363 12.0579 0 12.8024 0C13.553 0 16.8404 0 17.3778 0C17.9142 0 17.9022 0.416305 17.9022 0.416305C17.9022 2.1796 17.9022 6.79398 17.9022 9.16472C17.9022 9.93328 17.9022 10.4316 17.9022 10.4316C17.9022 10.4316 19.7455 10.4316 20.9024 10.4316C22.0572 10.4316 21.1876 11.2993 21.1876 11.2993C21.1876 11.2993 16.28 17.8141 15.5955 18.4976C15.1031 18.9929 14.6308 18.4395 14.6308 18.4395Z" fill="black"/>
</g>
<defs>
<clipPath id="clip0_229_11">
<rect width="30" height="30" fill="white"/>
</clipPath>
</defs>
</svg>
