<svg width="57" height="54" viewBox="0 0 57 54" fill="none" xmlns="http://www.w3.org/2000/svg">
<rect width="22" height="22" transform="translate(0 22)" fill="#1F1F1F"/>
<path d="M4.65784 22H5.64612V22.9797H6.55706V22H7.54534V24.9648H6.55706V23.9766H5.65471V24.9648H4.65784V22ZM8.85159 22.9883H7.97932V22H10.7164V22.9883H9.83987V24.9648H8.85159V22.9883ZM11.1504 22H12.186L12.8219 23.0441L13.4578 22H14.4934V24.9648H13.5051V23.4953L12.8133 24.5609L12.1215 23.4953V24.9648H11.1504V22ZM14.9832 22H15.9715V23.9852H17.3723V24.9648H14.9832V22Z" fill="white"/>
<path d="M4.62341 42.2383L3.20544 26.3226H18.7945L17.3765 42.2297L10.9871 44" fill="#FF4C1E"/>
<path d="M11 42.6465V27.6289H17.3723L16.1562 41.207L11 42.6465Z" fill="#FF651E"/>
<path d="M6.10156 29.5754H11L11.7284 30.5508L11 31.5262H8.24141L8.42188 33.5243H11L11.7284 34.5361L11 35.4708H6.63437L6.10156 29.5754ZM6.72031 36.4504H8.67969L8.81719 38.0102L11 38.5946L11.8219 39.5683L11 40.6313L6.99531 39.5141L6.72031 36.4504Z" fill="#EBEBEB"/>
<path d="M15.8812 29.5754H10.9913V31.5262H15.7007L15.8812 29.5754ZM15.5245 33.5243H10.9913V35.475H13.3976L13.1698 38.0102L10.9913 38.5946V40.6227L14.9874 39.5141L15.5245 33.5243Z" fill="white"/>
<g clip-path="url(#clip0_121_137)">
<rect width="27" height="27" transform="translate(19)" fill="#1F1F1F"/>
<path d="M42.5984 5.54346L40.7778 25.939L32.594 28.2078L24.4328 25.9422L22.6141 5.54346H42.5984Z" fill="#004CE8"/>
<path d="M39.2191 24.6403L40.7749 7.21143H32.6062V26.4737L39.2191 24.6403Z" fill="#0065F4"/>
<path d="M26.7834 14.777L27.0077 17.2788H32.6063L33.6824 16.0279L32.6063 14.777H26.7834Z" fill="#EBEBEB"/>
<path d="M32.6063 9.71326H32.5976H26.3329L26.5603 12.2151H32.6063L33.6824 10.9642L32.6063 9.71326Z" fill="#EBEBEB"/>
<path d="M32.6062 23.8775L33.6823 22.5508L32.6062 21.2745L32.5952 21.2775L29.8089 20.5251L29.6308 18.5298H28.2769H27.1194L27.4699 22.458L32.5947 23.8807L32.6062 23.8775Z" fill="#EBEBEB"/>
<path d="M27.3173 0H30.3474V1.26715H28.5844V2.5343H30.3474V3.80145H27.3173V0Z" fill="white"/>
<path d="M30.9535 0H33.9836V1.10187H32.2206V1.32224H33.9836V3.85654H30.9535V2.69958H32.7165V2.4792H30.9535V0Z" fill="white"/>
<path d="M34.5896 0H37.6197V1.10187H35.8567V1.32224H37.6197V3.85654H34.5896V2.69958H36.3526V2.4792H34.5896V0Z" fill="white"/>
<path d="M35.6784 17.2788L35.388 20.5235L32.5977 21.2766V23.8794L37.7265 22.458L37.7641 22.0353L38.3521 15.4488L38.4131 14.777L38.8647 9.71326H32.5977V12.2151H36.123L35.8953 14.777H32.5977V17.2788H35.6784Z" fill="white"/>
</g>
<g clip-path="url(#clip1_121_137)">
<rect width="27" height="27" transform="translate(30 27)" fill="#1F1F1F"/>
<path d="M30 27H57V54H30V27Z" fill="#FFDF00"/>
<path d="M48.1372 48.0938C48.681 48.9818 49.3886 49.6345 50.64 49.6345C51.6913 49.6345 52.3629 49.1091 52.3629 48.3831C52.3629 47.5131 51.6729 47.2049 50.5157 46.6988L49.8814 46.4266C48.0506 45.6466 46.8343 44.6695 46.8343 42.6037C46.8343 40.7009 48.2842 39.2523 50.55 39.2523C52.1632 39.2523 53.3229 39.8137 54.1586 41.2838L52.1829 42.5523C51.7479 41.7723 51.2786 41.4651 50.55 41.4651C49.8069 41.4651 49.3359 41.9365 49.3359 42.5523C49.3359 43.3135 49.8073 43.6216 50.8958 44.0931L51.5301 44.3648C53.6859 45.2892 54.903 46.2316 54.903 48.3505C54.903 50.6348 53.1085 51.8862 50.6987 51.8862C48.3424 51.8862 46.8201 50.7633 46.0752 49.2916L48.1372 48.0938ZM39.1744 48.3137C39.573 49.0208 39.9356 49.6187 40.8073 49.6187C41.6409 49.6187 42.1667 49.2925 42.1667 48.0244V39.3972H44.7039V48.0586C44.7039 50.6858 43.1636 51.8815 40.9153 51.8815C38.8839 51.8815 37.7075 50.8302 37.1091 49.564L39.1744 48.3137Z" fill="black"/>
</g>
<defs>
<clipPath id="clip0_121_137">
<rect width="27" height="27" fill="white" transform="translate(19)"/>
</clipPath>
<clipPath id="clip1_121_137">
<rect width="27" height="27" fill="white" transform="translate(30 27)"/>
</clipPath>
</defs>
</svg>
