<svg width="57" height="54" viewBox="0 0 57 54" fill="none" xmlns="http://www.w3.org/2000/svg">
    <path d="M4.65784 22H5.64612V22.9797H6.55706V22H7.54534V24.9648H6.55706V23.9766H5.65471V24.9648H4.65784V22ZM8.85159 22.9883H7.97932V22H10.7164V22.9883H9.83987V24.9648H8.85159V22.9883ZM11.1504 22H12.186L12.8219 23.0441L13.4578 22H14.4934V24.9648H13.5051V23.4953L12.8133 24.5609L12.1215 23.4953V24.9648H11.1504V22ZM14.9832 22H15.9715V23.9852H17.3723V24.9648H14.9832V22Z" fill="black" />
    <path d="M4.62341 42.2383L3.20544 26.3227H18.7945L17.3765 42.2297L10.9871 44" fill="#FF4C1E" />
    <path d="M11 42.6465V27.6289H17.3723L16.1562 41.207L11 42.6465Z" fill="#FF651E" />
    <path d="M6.10156 29.5754H11L11.7284 30.5508L11 31.5262H8.24141L8.42188 33.5242H11L11.7284 34.5361L11 35.4707H6.63437L6.10156 29.5754ZM6.72031 36.4504H8.67969L8.81719 38.0102L11 38.5945L11.8219 39.5682L11 40.6313L6.99531 39.5141L6.72031 36.4504Z" fill="#EBEBEB" />
    <path d="M15.8812 29.5754H10.9913V31.5262H15.7007L15.8812 29.5754ZM15.5245 33.5242H10.9913V35.475H13.3976L13.1698 38.0102L10.9913 38.5945V40.6227L14.9874 39.5141L15.5245 33.5242Z" fill="white" />
    <g clip-path="url(#clip0_117_265)">
        <path d="M37.5984 5.5435L35.7778 25.939L27.594 28.2078L19.4328 25.9422L17.6141 5.5435H37.5984Z" fill="#004CE8" />
        <path d="M34.2191 24.6403L35.7749 7.2114H27.6062V26.4736L34.2191 24.6403Z" fill="#0065F4" />
        <path d="M21.7834 14.777L22.0077 17.2788H27.6063L28.6824 16.0279L27.6063 14.777H21.7834Z" fill="#EBEBEB" />
        <path d="M27.6063 9.71324H27.5976H21.3329L21.5603 12.2151H27.6063L28.6824 10.9641L27.6063 9.71324Z" fill="#EBEBEB" />
        <path d="M27.6062 23.8774L28.6823 22.5507L27.6062 21.2745L27.5952 21.2774L24.8089 20.525L24.6308 18.5297H23.2769H22.1194L22.4699 22.4579L27.5947 23.8806L27.6062 23.8774Z" fill="#EBEBEB" />
        <path d="M22.3173 0H25.3474V1.26715H23.5844V2.5343H25.3474V3.80145H22.3173V0Z" fill="black" />
        <path d="M25.9535 0H28.9836V1.10187H27.2206V1.32224H28.9836V3.85654H25.9535V2.69958H27.7165V2.4792H25.9535V0Z" fill="black" />
        <path d="M29.5896 0H32.6197V1.10187H30.8567V1.32224H32.6197V3.85654H29.5896V2.69958H31.3526V2.4792H29.5896V0Z" fill="black" />
        <path d="M30.6784 17.2788L30.388 20.5234L27.5977 21.2766V23.8794L32.7265 22.4579L32.7641 22.0353L33.3521 15.4488L33.4131 14.777L33.8647 9.71324H27.5977V12.2151H31.123L30.8953 14.777H27.5977V17.2788H30.6784Z" fill="white" />
    </g>
    <g clip-path="url(#clip1_117_265)">
        <path d="M30 27H57V54H30V27Z" fill="#FFDF00" />
        <path d="M48.1372 48.0939C48.681 48.9819 49.3886 49.6345 50.64 49.6345C51.6913 49.6345 52.3629 49.1091 52.3629 48.3831C52.3629 47.5131 51.6729 47.205 50.5157 46.6988L49.8814 46.4267C48.0506 45.6467 46.8343 44.6695 46.8343 42.6038C46.8343 40.7009 48.2842 39.2524 50.55 39.2524C52.1632 39.2524 53.3229 39.8138 54.1586 41.2838L52.1829 42.5524C51.7479 41.7724 51.2786 41.4651 50.55 41.4651C49.8069 41.4651 49.3359 41.9365 49.3359 42.5524C49.3359 43.3135 49.8073 43.6217 50.8958 44.0931L51.5301 44.3648C53.6859 45.2892 54.903 46.2317 54.903 48.3505C54.903 50.6348 53.1085 51.8863 50.6987 51.8863C48.3424 51.8863 46.8201 50.7634 46.0752 49.2917L48.1372 48.0939ZM39.1744 48.3137C39.573 49.0209 39.9356 49.6187 40.8073 49.6187C41.6409 49.6187 42.1667 49.2926 42.1667 48.0245V39.3973H44.7039V48.0587C44.7039 50.6858 43.1636 51.8816 40.9153 51.8816C38.8839 51.8816 37.7075 50.8302 37.1091 49.564L39.1744 48.3137Z" fill="black" />
    </g>
    <defs>
        <clipPath id="clip0_117_265">
            <rect width="20" height="23.66" fill="white" transform="translate(17.5781 5.54346)" />
        </clipPath>
        <clipPath id="clip1_117_265">
            <rect width="27" height="27" fill="white" transform="translate(30 27)" rx="5" ry="5" />
        </clipPath>
    </defs>
</svg>
