<svg width="30" height="30" viewBox="0 0 30 30" fill="none" xmlns="http://www.w3.org/2000/svg">
<g clip-path="url(#clip0_333_31)">
<path d="M29.9905 14.9707C29.9905 16.0254 29.2092 16.8516 28.3238 16.8516H26.6571L26.6936 26.2383C26.6936 26.3965 26.6832 26.5547 26.6676 26.7129V27.6621C26.6676 28.957 25.7353 30.0059 24.5842 30.0059H23.7509C23.6936 30.0059 23.6363 30.0059 23.579 30C23.5061 30.0059 23.4332 30.0059 23.3603 30.0059L21.6676 30H20.4176C19.2665 30 18.3342 28.9512 18.3342 27.6562V26.25V22.5C18.3342 21.4629 17.5894 20.625 16.6676 20.625H13.3342C12.4124 20.625 11.6676 21.4629 11.6676 22.5V26.25V27.6562C11.6676 28.9512 10.7353 30 9.58423 30H8.33423H6.67277C6.59465 30 6.51652 29.9941 6.4384 29.9883C6.3759 29.9941 6.3134 30 6.2509 30H5.41756C4.26652 30 3.33423 28.9512 3.33423 27.6562V21.0938C3.33423 21.041 3.33423 20.9824 3.33944 20.9297V16.8457H1.67277C0.73527 16.8457 0.00610352 16.0254 0.00610352 14.9648C0.00610352 14.4375 0.162354 13.9687 0.526937 13.5586L13.8759 0.46875C14.2405 0.0585938 14.6571 0 15.0217 0C15.3863 0 15.803 0.117188 16.1155 0.410156L29.4176 13.5645C29.8342 13.9746 30.0426 14.4434 29.9905 14.9707Z" fill="white"/>
</g>
<defs>
<clipPath id="clip0_333_31">
<rect width="30" height="30" fill="white"/>
</clipPath>
</defs>
</svg>
